<?xml version="1.0" standalone="no"?>
<!DOCTYPE svg PUBLIC "-//W3C//DTD SVG 20010904//EN"
 "http://www.w3.org/TR/2001/REC-SVG-20010904/DTD/svg10.dtd">
<svg version="1.0" xmlns="http://www.w3.org/2000/svg"
 width="512.000000pt" height="499.000000pt" viewBox="0 0 512.000000 499.000000"
 preserveAspectRatio="xMidYMid meet">

<g transform="translate(0.000000,499.000000) scale(0.100000,-0.100000)"
fill="#000000" stroke="none">
<path d="M790 4983 c-214 -34 -393 -126 -536 -274 -113 -118 -181 -239 -227
-403 l-22 -81 0 -1730 0 -1730 22 -81 c90 -327 321 -557 658 -658 70 -20 80
-20 1830 -23 1220 -3 1781 0 1830 7 98 15 237 64 324 113 140 79 303 258 367
403 14 31 37 95 52 143 l27 86 0 1730 c0 1668 -1 1733 -19 1805 -43 170 -112
293 -235 423 -116 122 -244 197 -426 251 -70 20 -82 20 -1845 22 -976 1 -1786
0 -1800 -3z m2937 -1118 c94 -28 154 -112 161 -225 5 -80 -9 -134 -48 -188
-84 -117 -268 -136 -384 -40 -116 95 -116 311 0 406 72 60 171 77 271 47z
m-1353 -177 c29 -71 776 -2186 776 -2197 0 -8 -64 -11 -247 -9 l-246 3 -91
263 -91 262 -397 0 -397 0 -86 -265 -86 -265 -227 2 c-221 3 -227 4 -224 23 2
11 157 461 344 1000 187 539 346 1000 354 1025 7 25 16 78 20 118 l7 72 289 0
289 0 13 -32z m1484 -1371 l2 -847 -232 2 -233 3 -3 839 c-2 665 0 841 10 848
7 4 112 7 233 5 l220 -2 3 -848z"/>
<path d="M2068 3320 c-3 -8 -15 -53 -27 -100 -22 -85 -183 -616 -220 -722 -11
-31 -17 -59 -14 -62 9 -9 531 -7 536 2 3 4 -24 97 -59 207 -62 192 -167 535
-197 640 -8 29 -16 44 -19 35z"/>
</g>
</svg>
