<?xml version="1.0" standalone="no"?>
<!DOCTYPE svg PUBLIC "-//W3C//DTD SVG 20010904//EN"
 "http://www.w3.org/TR/2001/REC-SVG-20010904/DTD/svg10.dtd">
<svg version="1.0" xmlns="http://www.w3.org/2000/svg"
 width="517.000000pt" height="334.000000pt" viewBox="0 0 517.000000 334.000000"
 preserveAspectRatio="xMidYMid meet">

<g transform="translate(0.000000,334.000000) scale(0.100000,-0.100000)"
fill="#000000" stroke="none">
<path d="M65 3150 c0 -68 1 -70 25 -70 24 0 26 3 22 35 -4 31 -2 35 18 35 20
0 22 -4 17 -35 -6 -34 -5 -35 26 -35 24 0 28 3 19 12 -16 16 -16 100 0 116 9
9 5 12 -18 12 -28 0 -30 -2 -26 -30 4 -26 1 -30 -18 -30 -19 0 -22 4 -18 30 4
27 2 30 -21 30 -25 0 -26 -1 -26 -70z"/>
<path d="M402 3208 c6 -18 28 -21 28 -4 0 9 -7 16 -16 16 -9 0 -14 -5 -12 -12z"/>
<path d="M908 3150 c3 -52 7 -70 18 -70 11 0 14 16 14 70 0 60 -3 70 -17 70
-16 0 -18 -9 -15 -70z"/>
<path d="M1015 3150 c0 -67 1 -70 24 -70 20 0 22 4 17 25 -6 22 -2 28 29 41
62 26 38 74 -37 74 l-33 0 0 -70z m69 43 c4 -9 0 -23 -8 -32 -14 -13 -16 -13
-22 2 -7 20 1 47 15 47 5 0 12 -8 15 -17z"/>
<path d="M1135 3150 c0 -62 2 -70 19 -70 12 0 16 5 12 16 -3 9 -6 40 -6 70 0
36 -4 54 -12 54 -9 0 -13 -21 -13 -70z"/>
<path d="M759 3194 c-14 -17 -14 -93 1 -108 4 -4 16 -3 27 3 10 6 12 11 5 11
-8 0 -12 15 -11 50 2 57 -3 67 -22 44z"/>
<path d="M1958 3140 c2 -38 7 -70 11 -70 5 0 6 24 4 53 l-4 52 45 -50 46 -50
0 55 c0 31 5 61 12 68 9 9 8 12 -8 12 -17 0 -19 -6 -16 -47 l4 -48 -37 48
c-21 26 -43 47 -49 47 -7 0 -10 -23 -8 -70z"/>
<path d="M2310 3140 c0 -40 4 -70 10 -70 6 0 10 18 10 41 0 33 3 40 18 37 13
-3 17 -13 16 -41 -1 -24 3 -37 12 -37 9 0 11 11 8 38 -9 58 -12 64 -34 57 -16
-5 -20 -2 -20 19 0 14 -4 26 -10 26 -6 0 -10 -30 -10 -70z"/>
<path d="M228 3169 c-34 -19 -12 -89 27 -89 20 0 45 28 45 50 0 21 -25 50 -43
50 -7 0 -20 -5 -29 -11z m37 -37 c0 -46 -19 -44 -23 2 -3 28 0 37 10 34 7 -3
13 -19 13 -36z"/>
<path d="M316 3132 c1 -35 6 -48 18 -50 13 -3 16 5 16 36 0 26 4 39 13 38 6 0
13 3 15 9 1 5 -12 10 -30 11 l-33 3 1 -47z"/>
<path d="M400 3130 c0 -38 4 -50 15 -50 11 0 15 12 15 50 0 38 -4 50 -15 50
-11 0 -15 -12 -15 -50z"/>
<path d="M450 3163 c0 -13 3 -14 12 -5 24 24 29 11 9 -24 -28 -48 -27 -54 14
-54 26 0 35 4 35 16 0 14 -3 14 -15 4 -20 -17 -20 7 0 34 24 32 18 46 -20 46
-26 0 -35 -4 -35 -17z"/>
<path d="M547 3159 c-19 -26 -10 -58 19 -71 30 -14 54 4 54 41 0 50 -46 69
-73 30z m43 -29 c0 -22 -4 -40 -10 -40 -5 0 -10 18 -10 40 0 22 5 40 10 40 6
0 10 -18 10 -40z"/>
<path d="M640 3129 c0 -37 4 -49 15 -49 11 0 15 11 15 40 0 22 5 40 10 40 6 0
10 -18 10 -40 0 -33 3 -40 20 -40 16 0 20 7 20 31 0 49 -15 67 -55 67 l-35 0
0 -49z"/>
<path d="M823 3173 c-7 -2 -13 -11 -13 -20 0 -8 6 -13 13 -10 6 2 11 10 10 16
-2 6 4 11 12 11 24 0 17 -26 -11 -39 -40 -18 -28 -46 21 -46 40 0 40 0 37 35
-6 53 -28 70 -69 53z m37 -58 c0 -8 -4 -15 -10 -15 -5 0 -10 7 -10 15 0 8 5
15 10 15 6 0 10 -7 10 -15z"/>
<path d="M1191 3167 c-6 -8 -8 -17 -4 -20 11 -12 23 -8 23 8 0 8 5 15 10 15
20 0 9 -27 -16 -39 -40 -18 -28 -46 21 -46 l40 0 -4 40 c-1 22 -8 43 -14 47
-19 12 -44 9 -56 -5z m35 -64 c-10 -10 -19 5 -10 18 6 11 8 11 12 0 2 -7 1
-15 -2 -18z"/>
<path d="M1285 3129 c0 -40 3 -49 17 -49 14 0 18 9 18 40 0 22 5 40 10 40 6 0
10 -18 10 -40 0 -30 4 -40 16 -40 12 0 14 10 12 48 l-3 47 -40 1 -40 2 0 -49z"/>
<path d="M1402 3168 c-17 -17 -15 -63 3 -78 8 -7 23 -9 37 -4 l23 7 -23 8
c-28 10 -29 29 -1 29 15 0 20 5 17 23 -3 25 -36 35 -56 15z m38 -13 c0 -8 -4
-15 -10 -15 -5 0 -10 7 -10 15 0 8 5 15 10 15 6 0 10 -7 10 -15z"/>
<path d="M2256 3173 c-8 -8 -13 -10 -46 -12 -17 -1 -20 -7 -18 -46 1 -27 6
-45 13 -45 8 0 12 14 11 38 -1 31 3 38 21 40 19 3 22 -2 25 -34 5 -59 24 -52
22 8 -2 50 -11 67 -28 51z"/>
<path d="M2108 3159 c-25 -14 -24 -65 1 -79 25 -13 42 -13 19 1 -20 11 -24 64
-6 75 17 11 40 -27 33 -56 -5 -24 -5 -24 10 -6 20 26 19 32 -5 56 -23 23 -28
24 -52 9z"/>
<path d="M4320 3065 l0 -65 44 0 c25 0 47 4 50 9 4 5 -11 7 -33 4 l-40 -5 0
57 0 57 35 -4 c19 -2 34 0 34 4 0 4 -20 8 -45 8 l-45 0 0 -65z"/>
<path d="M4864 3100 c-12 -12 -3 -92 11 -97 6 -2 9 18 8 48 -1 56 -4 64 -19
49z"/>
<path d="M4023 3057 c-55 -25 -71 -36 -70 -51 2 -21 27 -1 -1430 -1183 -172
-139 -319 -253 -327 -253 -14 0 -16 34 -16 300 0 193 -4 300 -10 300 -6 0 -10
-105 -10 -295 0 -289 -1 -297 -22 -325 l-22 -30 -728 0 c-479 0 -728 -3 -728
-10 0 -7 250 -10 731 -10 l731 0 19 -22 c17 -22 18 -52 19 -650 0 -412 3 -628
10 -628 7 0 10 215 10 624 0 616 0 625 20 631 11 3 25 15 30 26 10 18 25 19
335 19 205 0 326 4 330 10 4 7 -106 10 -322 10 -425 0 -413 -10 -195 168 200
164 872 710 1062 863 80 65 233 190 340 277 173 142 196 158 208 143 12 -14
15 -14 32 9 35 46 81 110 78 109 -2 0 -35 -15 -75 -32z"/>
<path d="M4387 3075 c-4 -8 -2 -17 3 -20 6 -4 10 3 10 14 0 25 -6 27 -13 6z"/>
<path d="M4439 3086 c-7 -7 2 -126 9 -126 4 0 6 27 6 60 -1 58 -5 75 -15 66z"/>
<path d="M4483 3073 c20 -23 22 -44 5 -63 -11 -12 -10 -12 5 0 25 19 19 73 -8
79 -19 3 -19 3 -2 -16z"/>
<path d="M4538 3046 c-2 -28 1 -46 8 -46 6 0 9 17 8 40 -2 57 -11 60 -16 6z"/>
<path d="M4626 3076 c21 -15 30 -14 19 3 -3 6 -14 11 -23 11 -13 0 -13 -2 4
-14z"/>
<path d="M4681 3076 c-7 -8 -11 -27 -9 -43 2 -21 9 -29 27 -31 13 -2 28 1 35
8 8 8 7 9 -7 4 -17 -6 -47 11 -47 27 0 5 14 9 30 9 32 0 37 9 18 28 -16 16
-33 15 -47 -2z m39 -6 c0 -5 -9 -10 -21 -10 -11 0 -17 5 -14 10 3 6 13 10 21
10 8 0 14 -4 14 -10z"/>
<path d="M4767 3083 c-13 -12 -8 -83 6 -83 8 0 12 14 11 40 -1 42 -6 55 -17
43z"/>
<path d="M4809 3077 c7 -10 11 -30 9 -47 -3 -18 0 -30 7 -30 17 0 3 82 -15 88
-13 5 -13 3 -1 -11z"/>
<path d="M4921 3076 c-18 -22 -10 -70 13 -74 10 -2 23 2 30 9 8 9 8 10 -2 5
-13 -8 -42 10 -42 25 0 5 14 9 30 9 32 0 37 9 18 28 -16 16 -33 15 -47 -2z
m39 -6 c0 -5 -9 -10 -21 -10 -11 0 -17 5 -14 10 3 6 13 10 21 10 8 0 14 -4 14
-10z"/>
<path d="M5007 3083 c-11 -10 -8 -83 3 -83 6 0 10 20 10 45 0 46 -2 50 -13 38z"/>
<path d="M5035 3080 c3 -5 8 -10 11 -10 2 0 4 5 4 10 0 6 -5 10 -11 10 -5 0
-7 -4 -4 -10z"/>
<path d="M4586 3057 c-5 -18 -4 -32 4 -42 13 -16 46 -20 54 -7 3 5 -5 8 -17 8
-18 -1 -23 6 -28 34 l-5 35 -8 -28z"/>
<path d="M2155 2864 c-3 -25 -9 -54 -13 -62 -4 -12 2 -10 26 6 29 21 30 25 20
55 -17 51 -25 52 -33 1z"/>
<path d="M1997 2843 c4 -10 12 -28 19 -41 10 -19 13 -20 18 -7 3 9 -1 23 -9
31 -8 9 -15 20 -15 25 0 5 -4 9 -10 9 -5 0 -6 -8 -3 -17z"/>
<path d="M2040 2845 c0 -8 2 -15 4 -15 2 0 6 7 10 15 3 8 1 15 -4 15 -6 0 -10
-7 -10 -15z"/>
<path d="M2165 2790 c-16 -16 -23 -30 -17 -30 9 0 12 -72 12 -285 0 -183 4
-285 10 -285 6 0 10 102 10 285 0 281 0 285 21 285 16 0 19 4 14 23 -12 37
-20 38 -50 7z"/>
<path d="M1990 2760 c0 -5 4 -10 9 -10 6 0 13 5 16 10 3 6 -1 10 -9 10 -9 0
-16 -4 -16 -10z"/>
<path d="M2587 2682 c-22 -24 -21 -55 1 -75 23 -21 46 -21 77 -1 30 20 32 47
5 74 -25 25 -62 26 -83 2z"/>
<path d="M1606 2578 c-21 -30 -20 -44 4 -68 37 -37 100 -14 100 37 0 49 -76
72 -104 31z"/>
<path d="M3272 2318 c-51 -25 -30 -108 28 -108 29 0 60 30 60 58 0 14 -44 62
-57 61 -4 0 -18 -5 -31 -11z"/>
<path d="M2410 2110 c0 -5 -7 -10 -15 -10 -21 0 -35 -31 -24 -52 5 -10 14 -18
19 -18 6 0 5 9 -2 20 -10 15 -10 22 0 32 17 17 26 3 25 -37 -1 -23 4 -35 12
-35 10 0 12 11 8 40 -5 33 -3 40 12 40 14 0 16 -6 13 -30 -3 -19 -1 -29 6 -27
6 2 12 15 14 29 2 19 -2 28 -17 33 -12 3 -21 11 -21 16 0 5 -7 9 -15 9 -8 0
-15 -4 -15 -10z"/>
<path d="M1196 1977 c-38 -28 -8 -107 40 -107 21 0 54 37 54 60 0 25 -34 60
-58 60 -10 0 -26 -6 -36 -13z"/>
<path d="M2208 1973 c12 -2 30 -2 40 0 9 3 -1 5 -23 4 -22 0 -30 -2 -17 -4z"/>
<path d="M2388 1923 c16 -13 20 -21 11 -30 -11 -11 15 -34 68 -62 l23 -12 -20
51 c-11 28 -20 53 -20 57 0 3 -6 0 -14 -6 -12 -10 -21 -9 -43 5 -28 16 -28 16
-5 -3z"/>
<path d="M4625 1505 l0 -65 48 0 c38 0 47 3 46 18 0 10 -3 12 -6 5 -2 -7 -17
-13 -33 -13 -28 0 -29 1 -29 55 0 50 2 55 23 55 12 0 27 -5 34 -12 9 -9 12 -8
12 5 0 14 -9 17 -47 17 l-48 0 0 -65z"/>
<path d="M4330 1541 c0 -21 -2 -21 -305 -21 -197 0 -305 -4 -305 -10 0 -6 108
-10 305 -10 303 0 305 0 305 -21 0 -13 5 -19 13 -16 6 2 38 13 70 23 31 10 57
21 57 24 0 3 -26 14 -57 24 -32 10 -64 21 -70 23 -8 3 -13 -3 -13 -16z"/>
<path d="M4904 1537 c-3 -8 -4 -32 -2 -53 2 -30 8 -39 23 -41 11 -2 14 0 8 3
-15 6 -18 71 -4 76 5 2 3 9 -5 16 -12 11 -15 10 -20 -1z"/>
<path d="M4745 1520 c-4 -6 -4 -14 0 -18 4 -4 10 -1 12 6 9 24 20 12 21 -23 1
-33 -6 -43 -21 -28 -4 3 -2 12 5 20 8 11 7 12 -6 7 -9 -3 -16 -15 -16 -25 0
-15 7 -19 33 -19 l33 0 -5 43 c-5 33 -10 43 -28 45 -11 2 -24 -2 -28 -8z"/>
<path d="M4827 1516 c-3 -8 5 -24 18 -36 14 -13 22 -27 18 -33 -3 -6 -1 -7 5
-3 18 11 14 34 -8 46 -11 6 -20 16 -20 22 0 5 9 8 20 5 11 -3 20 -1 20 4 0 15
-47 10 -53 -5z"/>
<path d="M2920 1510 c0 -6 137 -10 390 -10 253 0 390 4 390 10 0 6 -137 10
-390 10 -253 0 -390 -4 -390 -10z"/>
<path d="M4686 1511 c-3 -5 1 -11 9 -15 9 -3 15 0 15 9 0 16 -16 20 -24 6z"/>
<path d="M4350 1375 c8 -10 8 -20 -1 -37 -12 -22 -11 -22 6 -8 14 11 19 12 22
3 3 -7 9 -13 14 -13 6 0 5 9 -1 21 -7 11 -10 26 -7 32 3 7 -6 13 -20 13 -19 2
-21 -1 -13 -11z"/>
<path d="M2239 1286 c-24 -53 26 -114 58 -70 16 23 17 68 1 82 -10 8 -13 0
-13 -36 0 -35 -4 -47 -15 -47 -11 0 -15 12 -15 48 0 26 -1 47 -3 47 -1 0 -7
-11 -13 -24z"/>
<path d="M1300 1232 c-48 -15 -65 -65 -32 -95 40 -36 102 -9 102 45 0 35 -36
61 -70 50z"/>
<path d="M3247 1162 c-31 -34 -18 -44 21 -16 l37 26 -39 -35 c-42 -37 -41 -52
1 -68 59 -22 102 59 51 95 -29 21 -51 20 -71 -2z"/>
<path d="M1698 809 c-46 -26 -40 -93 10 -106 32 -8 54 6 67 42 8 24 6 30 -18
51 -31 27 -35 28 -59 13z"/>
<path d="M2572 758 c-18 -18 -14 -63 6 -81 52 -47 115 11 82 74 -12 22 -68 27
-88 7z"/>
</g>
</svg>
