<?xml version="1.0" standalone="no"?>
<!DOCTYPE svg PUBLIC "-//W3C//DTD SVG 20010904//EN"
 "http://www.w3.org/TR/2001/REC-SVG-20010904/DTD/svg10.dtd">
<svg version="1.0" xmlns="http://www.w3.org/2000/svg"
 width="633.000000pt" height="628.000000pt" viewBox="0 0 633.000000 628.000000"
 preserveAspectRatio="xMidYMid meet">

<g transform="translate(0.000000,628.000000) scale(0.100000,-0.100000)"
fill="#000000" stroke="none">
<path d="M3110 6220 c-14 -5 -173 -57 -355 -115 -331 -108 -1414 -472 -1985
-668 -479 -165 -653 -229 -670 -245 -13 -14 -15 -231 -15 -2052 0 -2022 0
-2036 20 -2057 26 -28 68 -44 485 -184 504 -170 845 -278 896 -284 32 -4 70 3
156 31 62 20 119 39 126 41 9 4 12 -12 12 -60 0 -92 11 -114 67 -138 61 -26
809 -278 1097 -370 123 -39 236 -69 259 -69 68 0 555 164 711 240 80 39 196
140 270 234 68 87 43 84 232 25 67 -21 137 -38 155 -37 81 1 275 69 313 110
19 21 21 36 24 176 3 113 7 152 15 149 130 -48 462 -150 492 -150 70 0 437
124 473 159 16 16 17 130 22 1747 l5 1730 100 33 c187 63 245 86 245 99 0 7 6
15 13 18 9 3 12 71 12 298 0 281 -1 295 -20 316 -27 28 -182 83 -1235 433
-1307 435 -1789 591 -1845 595 -27 3 -61 1 -75 -5z"/>
</g>
</svg>
