<?xml version="1.0" encoding="UTF-8"?>
<svg version="1.1" xmlns="http://www.w3.org/2000/svg" width="460" height="460">
<path d="M0 0 C5.94912895 5.10136882 11.35823299 10.51316734 16.31152344 16.58007812 C17.24544922 17.69962891 17.24544922 17.69962891 18.19824219 18.84179688 C32.15784406 35.87305967 43.1506814 54.63216263 49.72363281 75.71777344 C50.26738549 77.44025909 50.8578031 79.14782591 51.45214844 80.85351562 C55.82301436 93.80302137 57.73183093 107.94852088 58.31152344 121.58007812 C58.39080078 123.35898437 58.39080078 123.35898437 58.47167969 125.17382812 C58.73051935 134.17520046 57.99576378 143.01104549 56.99902344 151.95507812 C56.88139648 153.03611816 56.76376953 154.1171582 56.64257812 155.23095703 C55.80240326 162.23921868 54.34391521 168.82624308 52.31152344 175.58007812 C52.11453857 176.27327148 51.91755371 176.96646484 51.71459961 177.68066406 C45.33228139 200.11478486 34.89696173 219.72571766 20.49731445 238.0246582 C19.37391615 239.49823666 18.33936018 241.038323 17.31152344 242.58007812 C16.65152344 242.58007812 15.99152344 242.58007812 15.31152344 242.58007812 C15.04275391 243.17336914 14.77398437 243.76666016 14.49707031 244.37792969 C13.30861612 246.58547846 12.10409955 248.04550694 10.34277344 249.81445312 C9.77171875 250.38808594 9.20066406 250.96171875 8.61230469 251.55273438 C8.01804687 252.13925781 7.42378906 252.72578125 6.81152344 253.33007812 C6.21726562 253.93207031 5.62300781 254.5340625 5.01074219 255.15429688 C4.15416016 256.00701172 4.15416016 256.00701172 3.28027344 256.87695312 C2.75884766 257.39612305 2.23742187 257.91529297 1.70019531 258.45019531 C0.31152344 259.58007812 0.31152344 259.58007812 -1.68847656 259.58007812 C-1.68847656 260.24007813 -1.68847656 260.90007812 -1.68847656 261.58007812 C-2.99853516 262.81347656 -2.99853516 262.81347656 -4.83691406 264.18945312 C-5.84226196 264.94585083 -5.84226196 264.94585083 -6.86791992 265.7175293 C-7.59245361 266.24967041 -8.3169873 266.78181152 -9.06347656 267.33007812 C-9.80154541 267.87575439 -10.53961426 268.42143066 -11.30004883 268.98364258 C-16.59520573 272.86087865 -21.92385346 276.43348586 -27.68847656 279.58007812 C-28.28176758 279.91604004 -28.87505859 280.25200195 -29.48632812 280.59814453 C-39.22179284 286.10567693 -48.92550261 290.54236388 -59.59423828 293.91259766 C-61.63761209 294.56386648 -63.66410584 295.25452661 -65.69238281 295.95117188 C-105.76515248 309.24722844 -153.11772466 304.2291848 -190.62109375 285.62597656 C-191.30333008 285.28083008 -191.98556641 284.93568359 -192.68847656 284.58007812 C-193.36813477 284.23750977 -194.04779297 283.89494141 -194.74804688 283.54199219 C-204.98524825 278.2887559 -214.1017214 271.87273096 -223.13305664 264.76586914 C-224.6066351 263.64247084 -226.14672144 262.60791487 -227.68847656 261.58007812 C-227.68847656 260.92007812 -227.68847656 260.26007813 -227.68847656 259.58007812 C-228.28176758 259.31130859 -228.87505859 259.04253906 -229.48632812 258.765625 C-231.6938769 257.57717081 -233.15390538 256.37265423 -234.92285156 254.61132812 C-235.78330078 253.75474609 -235.78330078 253.75474609 -236.66113281 252.88085938 C-237.24765625 252.28660156 -237.83417969 251.69234375 -238.43847656 251.08007812 C-239.04046875 250.48582031 -239.64246094 249.8915625 -240.26269531 249.27929688 C-241.11541016 248.42271484 -241.11541016 248.42271484 -241.98535156 247.54882812 C-242.50452148 247.02740234 -243.02369141 246.50597656 -243.55859375 245.96875 C-244.68847656 244.58007812 -244.68847656 244.58007812 -244.68847656 242.58007812 C-245.34847656 242.58007812 -246.00847656 242.58007812 -246.68847656 242.58007812 C-248.45053632 240.45092258 -250.08000159 238.32199376 -251.68847656 236.08007812 C-252.4188916 235.06880859 -252.4188916 235.06880859 -253.1640625 234.03710938 C-269.74922964 210.80714065 -281.8354596 185.11557967 -285.68847656 156.58007812 C-285.78854004 155.87222168 -285.88860352 155.16436523 -285.99169922 154.43505859 C-289.39486147 129.91621243 -288.3844823 104.24120216 -280.68847656 80.58007812 C-280.27936472 79.27416924 -279.87051971 77.96817673 -279.46191406 76.66210938 C-277.26948181 69.77619796 -274.85284506 63.07955442 -271.68847656 56.58007812 C-271.24761719 55.64808594 -270.80675781 54.71609375 -270.35253906 53.75585938 C-261.98752639 36.47259246 -250.41466768 20.03216712 -236.68847656 6.58007812 C-235.89699219 5.76152344 -235.10550781 4.94296875 -234.29003906 4.09960938 C-231.36116606 1.26308823 -228.28400644 -1.23903664 -225.06347656 -3.73242188 C-224.44883545 -4.21026123 -223.83419434 -4.68810059 -223.20092773 -5.18041992 C-221.36793136 -6.59953688 -219.52940002 -8.01110901 -217.68847656 -9.41992188 C-216.7075 -10.17273438 -215.72652344 -10.92554687 -214.71582031 -11.70117188 C-208.65126676 -16.23867957 -202.4546816 -20.02344741 -195.68847656 -23.41992188 C-194.63789063 -23.96261719 -193.58730469 -24.5053125 -192.50488281 -25.06445312 C-175.88424624 -33.27286115 -158.08082907 -39.04227801 -139.68847656 -41.41992188 C-138.53605469 -41.60167969 -137.38363281 -41.7834375 -136.19628906 -41.97070312 C-86.09773915 -48.07865828 -38.27782118 -32.18967726 0 0 Z M-139.68847656 -9.41992188 C-140.75702881 -9.25049072 -140.75702881 -9.25049072 -141.84716797 -9.07763672 C-168.35422202 -4.62902531 -198.77936088 10.16186492 -215.68847656 31.58007812 C-216.460625 32.17175781 -217.23277344 32.7634375 -218.02832031 33.37304688 C-240.01935893 51.6181817 -252.25912938 86.07208708 -255.31347656 113.54492188 C-256.55532482 127.82968493 -256.35130895 142.48091935 -253.68847656 156.58007812 C-253.51904541 157.54010742 -253.51904541 157.54010742 -253.34619141 158.51953125 C-248.37012315 185.9911584 -233.74797158 209.64804543 -214.68847656 229.58007812 C-213.90085938 230.40894531 -213.11324219 231.2378125 -212.30175781 232.09179688 C-187.79452379 257.28335157 -152.47408865 270.49566573 -117.68847656 271.58007812 C-105.43570485 271.68773942 -93.62000947 270.32408569 -81.68847656 267.58007812 C-79.77421875 267.14695312 -79.77421875 267.14695312 -77.82128906 266.70507812 C-69.2331034 264.5975479 -61.57602929 261.54347527 -53.68847656 257.58007812 C-52.61082031 257.05929687 -51.53316406 256.53851563 -50.42285156 256.00195312 C-47.48333454 254.56839556 -44.56400334 253.13816498 -41.68847656 251.58007812 C-40.65376221 251.04624512 -39.61904785 250.51241211 -38.55297852 249.96240234 C-35.35281988 247.81122413 -35.35281988 247.81122413 -35.00732422 244.09667969 C-35.00826828 242.72098833 -35.04184144 241.34505512 -35.10253906 239.97070312 C-35.11102875 239.24389343 -35.11951843 238.51708374 -35.12826538 237.76824951 C-35.16177056 235.45399691 -35.23702724 233.14327107 -35.31347656 230.83007812 C-35.34358067 229.25851399 -35.37095573 227.68689505 -35.39550781 226.11523438 C-35.46155007 222.26882999 -35.56503735 218.42505122 -35.68847656 214.58007812 C-36.18694092 214.96099609 -36.68540527 215.34191406 -37.19897461 215.734375 C-43.79945221 220.73802583 -50.65424292 225.2137909 -57.68847656 229.58007812 C-58.57277344 230.14082031 -59.45707031 230.7015625 -60.36816406 231.27929688 C-66.03039145 234.6395907 -71.88480217 236.82203744 -78.12597656 238.83007812 C-79.27005981 239.19975708 -79.27005981 239.19975708 -80.43725586 239.5769043 C-91.50060697 242.95987383 -102.33993126 243.94608483 -113.87597656 243.89257812 C-115.1524707 243.88693848 -116.42896484 243.88129883 -117.74414062 243.87548828 C-144.28366613 243.53523795 -166.9304825 235.14973356 -187.68847656 218.58007812 C-188.24148437 218.00902344 -188.79449219 217.43796875 -189.36425781 216.84960938 C-190.62335067 215.34939676 -190.62335067 215.34939676 -192.68847656 215.58007812 C-192.68847656 214.92007813 -192.68847656 214.26007813 -192.68847656 213.58007812 C-194.33850484 212.22620877 -196.00591526 210.8932967 -197.68847656 209.58007812 C-198.01847656 208.92007813 -198.34847656 208.26007813 -198.68847656 207.58007812 C-199.34847656 207.58007812 -200.00847656 207.58007812 -200.68847656 207.58007812 C-201.08679688 206.70996094 -201.08679688 206.70996094 -201.49316406 205.82226562 C-202.72863137 203.50475505 -204.1303052 201.71705506 -205.81347656 199.70507812 C-212.70508834 190.97186655 -218.01836049 181.06831779 -221.68847656 170.58007812 C-222.32076172 168.90365234 -222.32076172 168.90365234 -222.96582031 167.19335938 C-232.80142125 139.91025764 -230.86778693 107.84018239 -218.76123047 81.56787109 C-207.40721817 57.99890612 -189.72410452 39.76538564 -166.68847656 27.58007812 C-165.98335938 27.18175781 -165.27824219 26.7834375 -164.55175781 26.37304688 C-147.67084193 17.18191914 -127.62575925 14.54886132 -108.68847656 15.58007812 C-107.97224121 15.6172998 -107.25600586 15.65452148 -106.51806641 15.69287109 C-74.73240051 17.62506588 -48.51235058 32.61870546 -26.93847656 55.45507812 C-22.05799359 61.02394749 -18.36982643 67.17875 -14.68847656 73.58007812 C-14.15351563 74.43988281 -13.61855469 75.2996875 -13.06738281 76.18554688 C-1.11437227 96.21072038 2.32353507 123.00520697 -1.19046021 145.84243774 C-1.66042703 149.36956482 -1.8090407 152.6951877 -1.80200195 156.24975586 C-1.80192642 157.53055527 -1.80185089 158.81135468 -1.80177307 160.13096619 C-1.79666801 161.50853516 -1.79145205 162.88610372 -1.78613281 164.26367188 C-1.78426516 165.68856252 -1.7828429 167.11345382 -1.78184509 168.53834534 C-1.77804722 172.26848152 -1.76824058 175.99857808 -1.75714111 179.72869873 C-1.74686797 183.54308537 -1.74233488 187.35747848 -1.73730469 191.171875 C-1.72661558 198.641294 -1.70957237 206.11068049 -1.68847656 213.58007812 C1.2561411 211.45883165 2.96308714 209.88593374 4.62402344 206.64257812 C5.98641522 204.03445197 7.35765329 201.50773059 8.94042969 199.02539062 C21.70370695 178.86683639 26.48692873 153.96718638 26.49902344 130.45507812 C26.51126953 129.2253125 26.52351563 127.99554688 26.53613281 126.72851562 C26.55452648 115.05466564 25.29142038 103.7355345 21.99902344 92.51757812 C21.77883545 91.75574219 21.55864746 90.99390625 21.33178711 90.20898438 C18.31772495 79.98934586 14.50426362 70.60673259 9.37402344 61.26757812 C8.96708252 60.52636719 8.5601416 59.78515625 8.14086914 59.02148438 C5.2405501 53.88886824 1.94961844 49.21407274 -1.68847656 44.58007812 C-2.41550781 43.64421875 -3.14253906 42.70835937 -3.89160156 41.74414062 C-10.71175822 33.28402264 -17.88831878 25.24338177 -26.79003906 18.92773438 C-28.0195627 18.05492438 -29.22541045 17.14734373 -30.39941406 16.20117188 C-39.65632139 8.78351906 -50.73944377 3.05526843 -61.68847656 -1.41992188 C-62.41059326 -1.731875 -63.13270996 -2.04382813 -63.87670898 -2.36523438 C-70.18399915 -5.02286291 -76.43476873 -6.71547162 -83.12597656 -8.10742188 C-84.08568359 -8.31947266 -85.04539062 -8.53152344 -86.03417969 -8.75 C-103.77953387 -12.53806551 -121.83383522 -12.28847857 -139.68847656 -9.41992188 Z M-145.68847656 51.58007812 C-146.31383301 51.84240234 -146.93918945 52.10472656 -147.58349609 52.375 C-158.05102695 56.88542146 -166.94308594 63.20668286 -174.68847656 71.58007812 C-175.20667969 72.11632812 -175.72488281 72.65257812 -176.25878906 73.20507812 C-192.6267073 90.82077488 -198.3829577 112.14495412 -198.00488281 135.60351562 C-197.72535206 143.04909217 -196.26154067 149.5634 -193.68847656 156.58007812 C-193.33785156 157.59714844 -192.98722656 158.61421875 -192.62597656 159.66210938 C-184.09101814 182.27382214 -167.27827829 197.56265645 -145.68847656 207.58007812 C-134.59446732 212.30116782 -123.67114445 213.62565043 -111.68847656 213.58007812 C-110.54507813 213.58007812 -109.40167969 213.58007812 -108.22363281 213.58007812 C-88.44900125 212.79789245 -69.59180477 203.20199285 -55.56347656 189.64257812 C-53.57636443 187.92131943 -53.57636443 187.92131943 -53.68847656 186.58007812 C-73.48847656 186.58007812 -93.28847656 186.58007812 -113.68847656 186.58007812 C-113.68847656 176.35007812 -113.68847656 166.12007812 -113.68847656 155.58007812 C-87.61847656 155.58007812 -61.54847656 155.58007812 -34.68847656 155.58007812 C-27.8149156 134.95939525 -29.59494601 113.28697775 -38.68847656 93.58007812 C-40.84076546 89.45214607 -43.1783953 85.49900402 -45.68847656 81.58007812 C-46.07003906 80.95488281 -46.45160156 80.3296875 -46.84472656 79.68554688 C-50.22194798 74.30650471 -54.75322838 70.47632669 -59.68847656 66.58007812 C-60.34783203 65.88398438 -60.34783203 65.88398438 -61.02050781 65.17382812 C-76.41178729 50.46740652 -97.91379544 45.80148829 -118.36816406 45.98876953 C-128.14218501 46.28891871 -136.70603212 47.73011789 -145.68847656 51.58007812 Z " fill="#CD6538" transform="translate(344.6884765625,100.419921875)"/>
<path d="M0 0 C2.73795366 -0.00217643 5.47549662 -0.02036532 8.21337891 -0.03930664 C24.87106327 -0.0952632 40.71891042 1.43173909 56.95166016 5.31030273 C57.58847717 5.46047852 58.22529419 5.6106543 58.88140869 5.76538086 C70.73651864 8.58124101 81.94293309 12.40593262 93.13916016 17.18530273 C94.65847607 17.81472901 96.17800268 18.44364698 97.69775391 19.07202148 C103.83636203 21.64790272 109.82179267 24.27966995 115.36181641 28.01342773 C117.35400791 29.32696059 119.40931949 30.43674827 121.51416016 31.56030273 C126.66657909 34.39633504 131.39088032 37.7237438 136.13916016 41.18530273 C137.06599609 41.85432617 137.99283203 42.52334961 138.94775391 43.21264648 C144.63664961 47.39054731 150.12916638 51.74964484 155.51416016 56.31030273 C156.37025879 57.02802856 156.37025879 57.02802856 157.24365234 57.76025391 C160.77035051 60.78807596 163.75632438 64.01230053 166.72094727 67.58764648 C168.63698961 69.74612146 170.87452746 71.40462907 173.13916016 73.18530273 C174.62329116 74.8532848 176.05971788 76.56464935 177.45166016 78.31030273 C178.23541016 79.2912793 179.01916016 80.27225586 179.82666016 81.28295898 C180.58978516 82.24073242 181.35291016 83.19850586 182.13916016 84.18530273 C182.77853516 84.94713867 183.41791016 85.70897461 184.07666016 86.49389648 C201.125969 106.98858649 214.50128536 131.64044876 222.13916016 157.18530273 C222.35515869 157.80356934 222.57115723 158.42183594 222.79370117 159.05883789 C241.65456673 213.09929128 235.26132027 273.42620756 213.07666016 325.24780273 C212.66512695 326.21218262 212.25359375 327.1765625 211.82958984 328.17016602 C209.62292036 333.21209809 207.23359845 337.90526306 204.22631836 342.51611328 C202.95194871 344.47274147 201.85030067 346.49418583 200.76416016 348.56030273 C197.92823117 353.71253396 194.60186846 358.43804136 191.13916016 363.18530273 C190.45853516 364.12374023 189.77791016 365.06217773 189.07666016 366.02905273 C174.31122406 386.06785887 174.31122406 386.06785887 164.99072266 393.62280273 C162.56177125 395.67255076 160.37773108 397.92990045 158.13916016 400.18530273 C151.51326713 406.51603309 144.74846006 412.09236941 137.13916016 417.18530273 C135.45042745 418.39191268 133.7629275 419.60024978 132.07666016 420.81030273 C127.58864067 423.9491201 122.97006142 426.61687356 118.13916016 429.18530273 C116.32646579 430.18495036 114.5139745 431.18496631 112.70166016 432.18530273 C66.26607297 457.76484372 12.20351406 465.29543382 -39.86083984 456.18530273 C-40.78429199 456.02433105 -41.70774414 455.86335938 -42.65917969 455.69750977 C-61.24610622 452.2939934 -78.60137377 445.47766755 -95.86083984 437.93530273 C-96.90933105 437.47837036 -96.90933105 437.47837036 -97.97900391 437.01220703 C-102.241664 435.08986141 -106.15502755 432.840461 -110.08837891 430.31420898 C-112.08734895 429.04103578 -114.13853967 427.91283603 -116.23583984 426.81030273 C-123.9662855 422.5493233 -130.95329309 417.17978863 -137.98583984 411.87280273 C-138.56688477 411.44008057 -139.14792969 411.0073584 -139.74658203 410.56152344 C-141.15620934 409.4843594 -142.51401298 408.34002734 -143.86083984 407.18530273 C-143.86083984 406.52530273 -143.86083984 405.86530273 -143.86083984 405.18530273 C-144.59004639 404.94360352 -145.31925293 404.7019043 -146.07055664 404.45288086 C-149.23562049 403.01504627 -151.05700318 401.3619015 -153.50537109 398.90405273 C-154.34648437 398.06229492 -155.18759766 397.22053711 -156.05419922 396.35327148 C-156.91851562 395.4728418 -157.78283203 394.59241211 -158.67333984 393.68530273 C-159.55699219 392.80487305 -160.44064453 391.92444336 -161.35107422 391.01733398 C-167.86083984 384.45227305 -167.86083984 384.45227305 -167.86083984 382.18530273 C-168.52083984 382.18530273 -169.18083984 382.18530273 -169.86083984 382.18530273 C-172.86083984 378.72376427 -172.86083984 378.72376427 -172.86083984 376.18530273 C-173.52083984 376.18530273 -174.18083984 376.18530273 -174.86083984 376.18530273 C-174.86083984 375.52530273 -174.86083984 374.86530273 -174.86083984 374.18530273 C-175.52083984 374.18530273 -176.18083984 374.18530273 -176.86083984 374.18530273 C-178.47500315 372.17751548 -179.95855457 370.17391348 -181.42333984 368.06030273 C-182.0860791 367.11610474 -182.0860791 367.11610474 -182.76220703 366.15283203 C-206.27887534 332.40112553 -222.45909206 294.49224008 -225.86083984 253.18530273 C-225.97041016 252.1347168 -226.07998047 251.08413086 -226.19287109 250.00170898 C-231.23923059 197.1831463 -217.35660117 142.66274594 -186.86083984 99.18530273 C-186.0573216 98.01742536 -185.25394159 96.84945287 -184.45068359 95.68139648 C-179.95091314 89.20116718 -175.2826358 83.13249142 -169.86865234 77.36889648 C-167.7948316 75.16935102 -167.7948316 75.16935102 -165.82177734 72.59545898 C-163.65100147 69.92739382 -161.31284558 67.94690732 -158.64208984 65.81030273 C-156.72989249 64.15487285 -156.72989249 64.15487285 -154.95458984 61.76342773 C-151.23938855 57.18873958 -146.48023282 53.80719183 -141.86083984 50.18530273 C-140.94044922 49.46084961 -140.02005859 48.73639648 -139.07177734 47.98999023 C-120.15592281 33.45135823 -99.3493134 21.26970627 -76.86083984 13.18530273 C-76.22807129 12.94505371 -75.59530273 12.70480469 -74.94335938 12.45727539 C-64.82999454 8.62340203 -54.56804858 6.08653059 -43.98583984 3.87280273 C-42.16802002 3.49091797 -42.16802002 3.49091797 -40.31347656 3.10131836 C-26.8472312 0.39738618 -13.68549124 -0.00121261 0 0 Z M-39.86083984 35.18530273 C-41.5140625 35.52561523 -41.5140625 35.52561523 -43.20068359 35.87280273 C-53.0041535 38.02445594 -62.45415621 41.73884439 -71.86083984 45.18530273 C-73.4521875 45.7518457 -73.4521875 45.7518457 -75.07568359 46.32983398 C-89.54929625 51.87424514 -103.76420472 60.51985408 -115.86083984 70.18530273 C-116.73224609 70.8672168 -117.60365234 71.54913086 -118.50146484 72.25170898 C-132.22674407 83.21232482 -146.02341825 95.50824929 -155.86083984 110.18530273 C-155.86083984 110.84530273 -155.86083984 111.50530273 -155.86083984 112.18530273 C-156.52083984 112.18530273 -157.18083984 112.18530273 -157.86083984 112.18530273 C-168.71655267 126.56178729 -177.86382438 144.55774077 -183.62255859 161.54077148 C-184.3160637 163.58190796 -185.02704737 165.61799533 -185.80004883 167.63037109 C-188.40360981 174.45453176 -190.13643561 181.21340409 -191.54833984 188.37280273 C-191.76039063 189.40083008 -191.97244141 190.42885742 -192.19091797 191.48803711 C-193.9775817 200.29736018 -195.01868482 208.76027404 -195.06396484 217.73999023 C-195.06966492 218.64041046 -195.07536499 219.54083069 -195.08123779 220.46853638 C-195.09063953 222.36955612 -195.09720245 224.27059181 -195.10107422 226.17163086 C-195.11069562 229.01764106 -195.14173039 231.86290154 -195.17333984 234.70874023 C-195.3162871 259.49498525 -189.41121189 282.06513814 -180.86083984 305.18530273 C-180.48443359 306.24104492 -180.10802734 307.29678711 -179.72021484 308.38452148 C-175.10722872 320.45057848 -168.20903355 333.29314202 -159.86083984 343.18530273 C-158.85115226 344.67879896 -157.85129607 346.17898389 -156.86083984 347.68530273 C-153.31674879 352.81998803 -149.23544261 357.29461887 -144.94873047 361.80639648 C-142.68671247 364.18808253 -140.68851601 366.44378848 -138.86083984 369.18530273 C-138.20083984 369.18530273 -137.54083984 369.18530273 -136.86083984 369.18530273 C-136.36583984 370.67030273 -136.36583984 370.67030273 -135.86083984 372.18530273 C-134.37657752 373.76722091 -134.37657752 373.76722091 -132.48583984 375.31030273 C-131.77041016 375.91745117 -131.05498047 376.52459961 -130.31787109 377.15014648 C-125.85005086 380.85083701 -121.37188394 384.53735826 -116.86083984 388.18530273 C-116.02939453 388.87237305 -115.19794922 389.55944336 -114.34130859 390.26733398 C-111.92971431 392.13204704 -109.48776262 393.64428117 -106.86083984 395.18530273 C-105.90951172 395.82725586 -104.95818359 396.46920898 -103.97802734 397.13061523 C-76.41865472 415.65848261 -41.18233583 427.71503969 -7.86083984 428.18530273 C-7.06033203 428.20431641 -6.25982422 428.22333008 -5.43505859 428.24291992 C35.49019414 429.16752748 78.23527204 420.33807259 112.13916016 396.18530273 C112.68668945 395.80325684 113.23421875 395.42121094 113.79833984 395.02758789 C130.55473815 383.30719114 145.34239576 370.14804863 158.13916016 354.18530273 C158.82236328 353.36932617 159.50556641 352.55334961 160.20947266 351.71264648 C165.55428646 345.26742983 169.91472389 338.40624802 174.13916016 331.18530273 C174.57873047 330.43764648 175.01830078 329.68999023 175.47119141 328.91967773 C176.73948576 326.69698127 177.94306188 324.44771736 179.13916016 322.18530273 C179.73341797 321.09604492 180.32767578 320.00678711 180.93994141 318.88452148 C193.04678426 296.15916156 200.37176131 270.16036245 201.70166016 244.43530273 C201.74339355 243.63600342 201.78512695 242.8367041 201.828125 242.01318359 C202.12364013 236.06006151 202.31012226 230.14566348 202.13916016 224.18530273 C202.12030762 223.21101318 202.12030762 223.21101318 202.10107422 222.21704102 C201.47885209 193.81704525 193.56707785 166.86491436 181.57666016 141.24780273 C181.01241333 140.03918579 181.01241333 140.03918579 180.43676758 138.80615234 C178.30507633 134.33674841 175.97436473 130.26127168 173.13916016 126.18530273 C172.62998047 125.33581055 172.12080078 124.48631836 171.59619141 123.61108398 C169.01231859 119.30924747 166.05387056 115.26713234 163.13916016 111.18530273 C162.28837891 109.98454102 162.28837891 109.98454102 161.42041016 108.75952148 C160.63150391 107.6709082 160.63150391 107.6709082 159.82666016 106.56030273 C159.12089844 105.5819043 159.12089844 105.5819043 158.40087891 104.58374023 C157.77632813 103.89151367 157.77632813 103.89151367 157.13916016 103.18530273 C156.47916016 103.18530273 155.81916016 103.18530273 155.13916016 103.18530273 C154.89423828 102.62327148 154.64931641 102.06124023 154.39697266 101.48217773 C148.26386436 90.28258868 136.12157955 80.85738052 126.13916016 73.18530273 C125.22263672 72.46342773 124.30611328 71.74155273 123.36181641 70.99780273 C107.25460306 58.54444047 89.25634044 49.10052968 70.13916016 42.18530273 C69.13626953 41.77666992 68.13337891 41.36803711 67.10009766 40.94702148 C50.70054855 34.50291642 32.02849299 31.12212132 14.41650391 30.94702148 C13.60159988 30.93736359 12.78669586 30.92770569 11.94709778 30.91775513 C9.32357181 30.89303796 6.70028984 30.88037423 4.07666016 30.87280273 C3.18265503 30.86985199 2.2886499 30.86690125 1.36755371 30.86386108 C-12.75362647 30.85325199 -26.09155144 31.87065248 -39.86083984 35.18530273 Z " fill="#E9B24D" transform="translate(226.86083984375,0.814697265625)"/>
<path d="M0 0 C0.71623535 0.03722168 1.4324707 0.07444336 2.17041016 0.11279297 C35.43877219 2.13511825 62.85928204 18.56044229 84.6875 43.1171875 C88.67841978 48.09235438 91.8459167 53.47011369 95 59 C95.53367187 59.85851562 96.06734375 60.71703125 96.6171875 61.6015625 C108.57393978 81.61208575 112.02123032 108.43243996 108.49702454 131.25761414 C108.02473465 134.81375847 107.88582558 138.16189337 107.90234375 141.74560547 C107.90564697 143.04319794 107.9089502 144.34079041 107.91235352 145.67770386 C107.91647247 146.36066402 107.92059143 147.04362419 107.92483521 147.74728012 C107.93768911 149.89884172 107.94413618 152.05034116 107.94897461 154.20193481 C107.96034555 158.75965142 107.97962591 163.31731593 108 167.875 C108.02358951 173.17861675 108.04394963 178.48220526 108.05593872 183.78586197 C108.06243752 185.90927229 108.07493798 188.0325944 108.08764648 190.15597534 C108.09094971 191.43465485 108.09425293 192.71333435 108.09765625 194.03076172 C108.10289307 195.16214569 108.10812988 196.29352966 108.11352539 197.459198 C108 200 108 200 107 201 C106.87790076 202.41117702 106.82229128 203.82820459 106.79467773 205.24438477 C106.77473251 206.14524307 106.75478729 207.04610138 106.73423767 207.97425842 C106.71752518 208.95341721 106.70081268 209.93257599 106.68359375 210.94140625 C106.6524221 212.43751686 106.6524221 212.43751686 106.62062073 213.96385193 C106.55501363 217.16332843 106.49618866 220.36288982 106.4375 223.5625 C106.39432538 225.72592039 106.35071145 227.88933206 106.30664062 230.05273438 C106.19849073 235.36840369 106.09950049 240.68413347 106 246 C95.11 246 84.22 246 73 246 C72.67 231.15 72.34 216.3 72 201 C68.37 203.97 64.74 206.94 61 210 C58.2762155 211.83849166 55.64546555 213.55718883 52.8125 215.1875 C52.09545898 215.60330322 51.37841797 216.01910645 50.63964844 216.44750977 C24.8053186 230.99700148 -8.39729519 234.71080038 -37 227 C-52.79116816 222.51680628 -66.00698098 215.05638545 -79 205 C-79.92683594 204.30390625 -80.85367188 203.6078125 -81.80859375 202.890625 C-82.53175781 202.26671875 -83.25492188 201.6428125 -84 201 C-84 200.34 -84 199.68 -84 199 C-84.928125 198.62875 -84.928125 198.62875 -85.875 198.25 C-88.35068687 196.79371361 -88.95125002 195.62187494 -90 193 C-90.66 193 -91.32 193 -92 193 C-93.64189315 191.16278871 -95.13993063 189.33416423 -96.625 187.375 C-97.0679541 186.79322998 -97.5109082 186.21145996 -97.96728516 185.61206055 C-104.74525469 176.51275197 -110.24660491 166.72622948 -114 156 C-114.42152344 154.88238281 -114.84304687 153.76476562 -115.27734375 152.61328125 C-125.11294469 125.33017951 -123.17931036 93.26010427 -111.07275391 66.98779297 C-99.57434905 43.11909404 -81.36441799 24.23573012 -58 12 C-57.29617187 11.60296875 -56.59234375 11.2059375 -55.8671875 10.796875 C-38.99621691 1.59452741 -18.93153156 -1.03090363 0 0 Z M-37 37 C-37.62535645 37.26232422 -38.25071289 37.52464844 -38.89501953 37.79492188 C-49.36255039 42.30534333 -58.25460938 48.62660473 -66 57 C-66.51820313 57.53625 -67.03640625 58.0725 -67.5703125 58.625 C-83.93823074 76.24069676 -89.69448114 97.56487599 -89.31640625 121.0234375 C-89.03687549 128.46901404 -87.57306411 134.98332188 -85 142 C-84.649375 143.01707031 -84.29875 144.03414063 -83.9375 145.08203125 C-75.40254158 167.69374401 -58.58980172 182.98257833 -37 193 C-25.90599076 197.72108969 -14.98266789 199.0455723 -3 199 C-1.85660156 199 -0.71320313 199 0.46484375 199 C20.23947532 198.21781433 39.0966718 188.62191473 53.125 175.0625 C55.11211213 173.3412413 55.11211213 173.3412413 55 172 C35.2 172 15.4 172 -5 172 C-5 161.77 -5 151.54 -5 141 C21.07 141 47.14 141 74 141 C80.87356096 120.37931713 79.09353055 98.70689963 70 79 C67.8477111 74.87206795 65.51008126 70.9189259 63 67 C62.6184375 66.37480469 62.236875 65.74960938 61.84375 65.10546875 C58.46652859 59.72642658 53.93524818 55.89624856 49 52 C48.34064453 51.30390625 48.34064453 51.30390625 47.66796875 50.59375 C32.27668927 35.88732839 10.77468113 31.22141016 -9.6796875 31.40869141 C-19.45370845 31.70884059 -28.01755556 33.15003977 -37 37 Z " fill="#346D9C" transform="translate(236,115)"/>
</svg>
