<?xml version="1.0" standalone="no"?>
<!DOCTYPE svg PUBLIC "-//W3C//DTD SVG 1.0//EN" "http://www.w3.org/TR/2001/REC-SVG-20010904/DTD/svg10.dtd">
<svg xmlns="http://www.w3.org/2000/svg" xmlns:xlink="http://www.w3.org/1999/xlink" id="body_1" width="256" height="256">

<g transform="matrix(1 0 0 1 0 0)">
	<g>
        <path d="M255.63739 127.68319C 255.63739 198.19655 198.47208 255.36337 127.95421 255.36337C 57.434837 255.36337 0.27026394 198.19655 0.27026394 127.68319C 0.27026394 57.165325 57.43559 0 127.95421 0C 198.47282 0 255.63739 57.165325 255.63739 127.68319z" stroke="none" fill="#DD4814" fill-rule="nonzero" />
        <path d="M41.13342 110.63254C 31.71397 110.63254 24.082767 118.264496 24.082767 127.68319C 24.082767 137.09738 31.71397 144.72859 41.13342 144.72859C 50.54761 144.72859 58.178814 137.09738 58.178814 127.68319C 58.178814 118.264496 50.54761 110.63254 41.13342 110.63254zM162.84828 188.1112C 154.69456 192.82056 151.89883 203.24072 156.60893 211.38994C 161.31303 219.54366 171.73322 222.33862 179.88692 217.62927C 188.03989 212.92519 190.83562 202.505 186.12627 194.35054C 181.42216 186.20209 170.99599 183.4071 162.84828 188.1112zM78.16183 127.68319C 78.16183 110.83674 86.5295 95.95345 99.33325 86.9409L99.33325 86.9409L86.87033 66.066765C 71.95552 76.03651 60.85818 91.27113 56.24643 109.11381C 61.62768 113.504845 65.072044 120.18937 65.072044 127.68244C 65.072044 135.171 61.62768 141.85553 56.24643 146.24657C 60.852177 164.0945 71.94952 179.32988 86.87033 189.2996L86.87033 189.2996L99.33325 168.42023C 86.5295 159.41293 78.16183 144.5304 78.16183 127.68319zM127.95421 77.88556C 153.9671 77.88556 175.30894 97.830284 177.54913 123.26588L177.54913 123.26588L201.83986 122.907776C 200.6447 104.12969 192.44144 87.27198 179.83662 74.87587C 173.3548 77.32476 165.86774 76.95015 159.39641 73.21976C 152.91383 69.47885 148.84937 63.168186 147.73828 56.31775C 141.43813 54.57905 134.80765 53.62712 127.952705 53.62712C 116.16845 53.62712 105.02682 56.395073 95.13441 61.291355L95.13441 61.291355L106.97947 82.517586C 113.35169 79.552185 120.46039 77.88556 127.95421 77.88556zM127.95421 177.47557C 120.46039 177.47557 113.35169 175.80818 106.980225 172.84354L106.980225 172.84354L95.135155 194.06902C 105.027565 198.97131 116.1692 201.74 127.95421 201.74C 134.80914 201.74 141.43962 200.78734 147.73903 199.04338C 148.85011 192.19293 152.91608 185.88828 159.39716 182.14062C 165.87299 178.40422 173.35555 178.03636 179.83737 180.48526C 192.44218 168.08916 200.64545 151.23143 201.8406 132.45335L201.8406 132.45335L177.54388 132.09525C 175.30894 157.5376 153.96786 177.47557 127.95421 177.47557zM162.84227 67.24467C 170.99599 71.95327 181.41692 69.16429 186.121 61.010582C 190.83035 52.85687 188.04138 42.43594 179.88692 37.72584C 171.73322 33.021748 161.31303 35.816727 156.60219 43.97044C 151.89883 52.119648 154.69382 62.540573 162.84227 67.24467z" stroke="none" fill="#FFFFFF" fill-rule="nonzero" />
	</g>
</g>
</svg>